<svg width="147" height="44" fill="none" xmlns="http://www.w3.org/2000/svg"><path d="M147 20.66c0 .284-.23.514-.513.514-7.025 0-12.741 8.36-12.741 18.637a.512.512 0 11-1.026 0c0-10.277-5.714-18.637-12.738-18.637a.513.513 0 010-1.026c7.024 0 12.738-8.36 12.738-18.635a.512.512 0 111.026 0c0 10.274 5.716 18.635 12.741 18.635.283 0 .513.228.513.513zM4.36 19.446c0 .716-.17 1.26-.476 1.873-.136.34-.376.75-.035.92.34.17.546-.273.613-.409 1.09-1.908 2.895-3.338 5.688-3.338 4.665 0 7.833 4.087 7.833 9.263 0 5.177-3.168 9.264-7.834 9.264-2.724 0-4.597-1.398-5.687-3.371-.067-.103-.205-.444-.51-.34-.376.135-.239.475-.068.816.305.613.476 1.157.476 1.838v7.322H0V18.765h4.36v.681zm9.263 8.31c0-2.86-1.43-5.314-4.495-5.314-2.86 0-4.768 2.451-4.768 5.313 0 2.862 1.908 5.314 4.768 5.314 3.065 0 4.495-2.452 4.495-5.314zM25.474 26.155c3.2-.17 6.028.136 5.995-1.533-.035-1.226-.51-2.589-3.61-2.589-3.066 0-3.85 1.26-4.088 2.725H19.48c.614-4.53 4.495-6.266 8.515-6.266 4.121 0 7.833 1.363 7.833 8.31v9.944h-4.36v-1.26c0-.817.205-1.397.51-1.976.136-.305.274-.646-.034-.783-.34-.136-.476.205-.546.375-1.021 2.487-2.997 3.917-6.198 3.917-3.37 0-6.265-2.18-6.265-5.212 0-3.984 2.93-5.447 6.54-5.652zm.75 2.895c-1.874.205-2.93.92-2.93 2.52 0 1.497 1.43 2.451 3.44 2.178 2.316-.305 4.7-1.805 4.733-6.265-1.022 1.124-2.657 1.294-5.244 1.567z" fill="#D1F1E7"/><path d="M39.844 18.762l4.019 11.614c.238.716.273 1.362.273 2.043 0 .239.034.58.408.58.373 0 .408-.307.408-.58 0-.646.068-1.327.306-2.043l3.849-11.614h4.632L46.111 38.82c-1.227 3.2-2.93 4.462-6.062 4.462h-3.27v-3.814h1.497c2.59 0 3.1 0 3.576-1.397l.376-1.09-7.017-18.22h4.633zM54.625 12.223h4.36v4.36h-4.36v-4.36zm0 6.54h4.36v17.983h-4.36V18.763zM67.566 22.577v8.208c0 1.976.035 2.146 1.873 2.146h3.03v3.815h-3.951c-3.611 0-5.314-1.193-5.314-5.517v-8.652h-3.27v-3.814h3.27v-4.904h4.36v4.904h4.903v3.814h-4.901zM91.133 27.755c0 5.109-3.37 9.264-8.99 9.264s-8.99-4.155-8.99-9.264c0-5.108 3.37-9.263 8.99-9.263 5.617 0 8.99 4.155 8.99 9.263zm-4.36 0c0-2.93-1.668-5.313-4.632-5.313-2.963 0-4.633 2.384-4.633 5.313 0 2.93 1.668 5.314 4.633 5.314 2.964 0 4.632-2.384 4.632-5.314zM110.206 18.15v.613h4.903v3.814h-4.903v14.169h-4.36V22.577H98.08v14.169h-4.36V22.577h-2.724v-3.814h2.725v-1.021c0-4.325 1.703-5.52 5.313-5.52h3.952v3.817h-3.032c-1.839 0-1.874.135-1.874 2.11v.614h7.766v-1.021c0-4.325 1.703-5.52 5.314-5.52h3.949v3.817h-3.03c-1.841 0-1.873.135-1.873 2.11z" fill="#D1F1E7"/></svg>